<svg xmlns="http://www.w3.org/2000/svg" width="1260" height="420" viewBox="0 0 1260 420"><rect width="100%" height="100%" fill="white"/><rect x="15" y="68" width="195" height="125" fill="#f5f8fb" stroke="#3e5b76" stroke-width="1.5"/><text x="112" y="107.25" text-anchor="middle" font-family="Times New Roman, SimSun, serif" font-size="25" font-weight="bold" fill="#17222b">操作者与原文件</text><text x="112" y="146.4" text-anchor="middle" font-family="Times New Roman, SimSun, serif" font-size="24" font-weight="normal" fill="#17222b">论文 / 图片</text><text x="112" y="178.55" text-anchor="middle" font-family="Times New Roman, SimSun, serif" font-size="23" font-weight="normal" fill="#17222b">数值能带 / 结构</text><rect x="260" y="68" width="260" height="125" fill="#f5f8fb" stroke="#3e5b76" stroke-width="1.5"/><text x="390" y="108.1" text-anchor="middle" font-family="Times New Roman, SimSun, serif" font-size="26" font-weight="bold" fill="#17222b">宿主 AI 模型</text><text x="390" y="144.4" text-anchor="middle" font-family="Times New Roman, SimSun, serif" font-size="24" font-weight="normal" fill="#17222b">视觉识别、查文献</text><text x="390" y="178.4" text-anchor="middle" font-family="Times New Roman, SimSun, serif" font-size="24" font-weight="normal" fill="#17222b">选择工具、解释结果</text><rect x="573" y="90" width="190" height="82" fill="#f5f8fb" stroke="#3e5b76" stroke-width="1.5"/><text x="668" y="124.25" text-anchor="middle" font-family="Times New Roman, SimSun, serif" font-size="25" font-weight="bold" fill="#17222b">MCP 客户端</text><text x="668" y="157.55" text-anchor="middle" font-family="Times New Roman, SimSun, serif" font-size="23" font-weight="normal" fill="#17222b">调用与返回</text><rect x="825" y="68" width="417" height="125" fill="#f5f8fb" stroke="#3e5b76" stroke-width="1.5"/><text x="1033" y="106.1" text-anchor="middle" font-family="Times New Roman, SimSun, serif" font-size="26" font-weight="bold" fill="#17222b">本地 MCP 服务：17 个工具</text><text x="1033" y="144.4" text-anchor="middle" font-family="Times New Roman, SimSun, serif" font-size="24" font-weight="normal" fill="#17222b">证据校验 → 数值分析 → 导出</text><text x="1033" y="177.55" text-anchor="middle" font-family="Times New Roman, SimSun, serif" font-size="23" font-weight="normal" fill="#17222b">不调用历史模型，不自行训练</text><polyline points="210,131 255,131" fill="none" stroke="#3e5b76" stroke-width="3"/><polyline points="245,125 255,131 245,137" fill="none" stroke="#3e5b76" stroke-width="3"/><polyline points="520,131 568,131" fill="none" stroke="#3e5b76" stroke-width="3"/><polyline points="558,125 568,131 558,137" fill="none" stroke="#3e5b76" stroke-width="3"/><polyline points="763,131 820,131" fill="none" stroke="#3e5b76" stroke-width="3"/><polyline points="810,125 820,131 810,137" fill="none" stroke="#3e5b76" stroke-width="3"/><polyline points="1033,67 1033,26 390,26 390,63" fill="none" stroke="#3e5b76" stroke-width="3"/><polyline points="384,53 390,63 396,53" fill="none" stroke="#3e5b76" stroke-width="3"/><text x="708" y="19.55" text-anchor="middle" font-family="Times New Roman, SimSun, serif" font-size="23" font-weight="normal" fill="#17222b">返回数据或缺失证据提示</text><rect x="15" y="237" width="350" height="66" fill="#fff8e9" stroke="#8d7439" stroke-width="1.5"/><text x="190" y="267.55" text-anchor="middle" font-family="Times New Roman, SimSun, serif" font-size="23" font-weight="normal" fill="#17222b">本地适配器：文件 → 附件编号</text><text x="190" y="295.85" text-anchor="middle" font-family="Times New Roman, SimSun, serif" font-size="21" font-weight="normal" fill="#17222b">记录文件摘要，不让 AI 编造字节</text><polyline points="112,193 112,233" fill="none" stroke="#8d7439" stroke-width="3"/><polyline points="106,223 112,233 118,223" fill="none" stroke="#8d7439" stroke-width="3"/><polyline points="365,269 799,269 799,187 821,187" fill="none" stroke="#8d7439" stroke-width="3"/><polyline points="811,181 821,187 811,193" fill="none" stroke="#8d7439" stroke-width="3"/><text x="566" y="257.7" text-anchor="middle" font-family="Times New Roman, SimSun, serif" font-size="22" font-weight="normal" fill="#17222b">编号与摘要</text><rect x="825" y="237" width="417" height="66" fill="#f5f8fb" stroke="#3e5b76" stroke-width="1.5"/><text x="1033" y="267.55" text-anchor="middle" font-family="Times New Roman, SimSun, serif" font-size="23" font-weight="normal" fill="#17222b">可选 PDF / OCR 后备解析</text><text x="1033" y="295.85" text-anchor="middle" font-family="Times New Roman, SimSun, serif" font-size="21" font-weight="normal" fill="#17222b">子进程内存限制、超时与大小检查</text><polyline points="1033,236 1033,198" fill="none" stroke="#3e5b76" stroke-width="3"/><polyline points="1027,208 1033,198 1039,208" fill="none" stroke="#3e5b76" stroke-width="3"/><polyline points="15,336 1242,336" fill="none" stroke="#999999" stroke-width="1" stroke-dasharray="8 5"/><text x="630" y="368.4" text-anchor="middle" font-family="Times New Roman, SimSun, serif" font-size="24" font-weight="normal" fill="#17222b">历史离线分支：AFLOW 数值数据 → 遮蔽预训练 → 分类微调 → 留出测试</text><text x="630" y="403.55" text-anchor="middle" font-family="Times New Roman, SimSun, serif" font-size="23" font-weight="bold" fill="#17222b">历史权重与当前 MCP 主链路断开；未知内容不补成科学事实</text></svg>